<?xml version="1.0" standalone="no"?>
<!DOCTYPE svg PUBLIC "-//W3C//DTD SVG 20010904//EN"
 "http://www.w3.org/TR/2001/REC-SVG-20010904/DTD/svg10.dtd">
<svg version="1.0" xmlns="http://www.w3.org/2000/svg"
 width="1013.000000pt" height="863.000000pt" viewBox="0 0 1013.000000 863.000000"
 preserveAspectRatio="xMidYMid meet">

<g transform="translate(0.000000,863.000000) scale(0.100000,-0.100000)"
fill="#282938" stroke="none">
<path d="M5370 5846 c0 -17 9 -105 21 -196 21 -163 30 -190 65 -190 6 0 25 26
42 58 49 91 133 295 128 308 -5 14 -82 32 -185 43 l-71 7 0 -30z"/>
<path d="M4994 5790 c-44 -21 -94 -52 -112 -67 l-34 -28 128 -145 c70 -80 133
-149 141 -153 8 -5 26 -6 40 -2 25 6 25 8 21 68 -8 92 -77 367 -93 367 -7 0
-48 -18 -91 -40z"/>
<path d="M5745 5589 c-36 -72 -65 -137 -65 -143 0 -6 24 -24 54 -40 l54 -29
114 42 c152 57 147 53 125 94 -37 68 -177 207 -209 207 -5 0 -38 -59 -73 -131z"/>
<path d="M5170 5225 c0 -3 42 -58 94 -123 229 -284 244 -298 291 -268 14 9 25
23 25 31 0 7 -26 49 -59 92 -32 43 -66 92 -75 110 -15 30 -15 33 1 42 20 10
345 75 433 87 45 6 50 8 30 14 -31 9 -740 24 -740 15z"/>
<path d="M5975 5028 c-82 -17 -156 -32 -162 -34 -9 -2 -13 -26 -13 -72 0 -132
-47 -245 -118 -283 -19 -9 -36 -20 -39 -23 -3 -3 12 -34 34 -68 22 -35 50 -80
62 -100 13 -21 28 -38 35 -38 20 0 86 51 136 106 54 57 117 148 152 219 55
108 102 314 73 320 -5 1 -77 -11 -160 -27z"/>
<path d="M3495 4660 c-68 -27 -115 -68 -150 -131 -27 -49 -30 -63 -29 -139 0
-71 5 -93 26 -135 53 -102 127 -144 253 -145 56 0 90 5 115 18 32 15 35 21 38
66 4 64 -6 73 -56 47 -54 -27 -133 -28 -176 -1 -18 10 -42 38 -55 60 -20 35
-23 52 -19 110 3 60 7 73 33 101 60 63 132 76 206 39 22 -12 44 -18 49 -15 13
8 31 80 25 98 -17 44 -176 61 -260 27z"/>
<path d="M4013 4664 c-61 -22 -136 -94 -162 -155 -49 -112 -20 -253 66 -329
55 -48 118 -70 202 -70 110 1 195 54 243 152 72 147 25 309 -112 382 -66 36
-170 45 -237 20z m178 -117 c57 -38 79 -81 79 -152 0 -101 -56 -165 -152 -173
-59 -4 -102 17 -142 71 -31 43 -34 140 -4 192 49 83 146 111 219 62z"/>
<path d="M4513 4670 l-23 -9 0 -265 c0 -315 -12 -292 145 -284 114 6 163 25
228 87 54 51 79 104 85 181 6 91 -11 143 -64 200 -63 68 -122 90 -248 96 -55
2 -111 0 -123 -6z m241 -128 c53 -31 71 -66 71 -140 -1 -110 -56 -171 -161
-180 l-54 -4 0 170 c0 154 2 171 18 175 28 8 95 -4 126 -21z"/>
<path d="M5064 4666 c-18 -14 -19 -28 -19 -265 0 -209 2 -253 15 -265 12 -11
48 -16 157 -18 77 -2 144 0 148 4 4 4 10 27 12 53 l6 45 -107 0 -106 0 0 65 0
65 78 0 c85 0 102 8 102 50 0 41 -17 50 -100 50 -42 0 -79 2 -81 4 -2 2 -2 29
-1 60 l4 55 101 3 102 3 3 46 c4 58 1 59 -169 59 -92 0 -130 -4 -145 -14z"/>
<path d="M2648 4457 c-72 -60 -124 -111 -126 -123 -2 -15 24 -43 105 -110 169
-141 174 -143 187 -75 7 37 -11 58 -118 147 l-50 40 87 68 c86 67 87 68 87
112 0 71 -28 62 -172 -59z"/>
<path d="M6078 3936 c-23 -12 -23 -12 -26 -270 -2 -182 1 -263 9 -272 14 -17
81 -18 97 -2 8 8 12 60 12 166 l0 155 109 -165 c59 -91 116 -168 125 -171 29
-11 54 -8 70 9 14 13 16 52 16 273 0 208 -3 261 -14 270 -20 17 -86 17 -97 0
-5 -8 -9 -84 -9 -169 l0 -155 -23 40 c-39 66 -138 218 -168 256 -32 40 -66 52
-101 35z"/>
<path d="M3367 3933 c-4 -3 -7 -127 -7 -274 0 -255 1 -269 19 -279 27 -14 215
-13 265 2 124 38 166 190 75 276 -38 36 -38 36 -20 61 32 45 35 86 11 136 -33
68 -77 85 -221 85 -64 0 -119 -3 -122 -7z m207 -103 c21 -8 26 -16 26 -44 0
-47 -22 -66 -76 -66 l-44 0 0 60 0 60 34 0 c19 0 46 -4 60 -10z m51 -235 c28
-27 30 -42 14 -78 -15 -32 -49 -47 -109 -47 l-50 0 0 75 0 75 60 0 c51 0 65
-4 85 -25z"/>
<path d="M3873 3933 c-17 -12 -23 -527 -6 -544 16 -16 93 -15 104 2 6 8 9 52
7 99 l-3 85 29 0 c25 0 34 -9 75 -83 55 -96 67 -110 101 -113 81 -7 94 11 52
73 -16 24 -41 67 -56 96 l-27 54 40 43 c59 64 66 136 19 212 -37 61 -79 78
-208 81 -63 2 -120 -1 -127 -5z m224 -125 c29 -27 30 -67 2 -102 -17 -22 -29
-26 -68 -26 l-48 0 -5 43 c-3 24 -3 57 0 75 4 31 6 32 50 32 33 0 52 -6 69
-22z"/>
<path d="M4362 3928 c-14 -14 -17 -514 -4 -535 10 -16 232 -28 287 -16 35 8
40 13 43 38 4 52 -7 58 -117 63 l-101 5 0 63 0 64 85 0 c95 0 109 10 103 73
l-3 32 -92 3 -93 3 0 54 0 55 89 0 c82 0 91 2 105 22 20 29 20 52 0 72 -12 13
-41 16 -153 16 -93 0 -141 -4 -149 -12z"/>
<path d="M4934 3932 c-17 -11 -29 -38 -92 -208 -93 -250 -116 -324 -103 -337
13 -13 79 -11 97 4 7 6 20 33 29 60 l17 49 86 -6 c48 -4 90 -9 93 -13 3 -3 14
-27 23 -53 17 -47 19 -48 59 -48 73 0 74 4 32 131 -59 178 -135 382 -151 407
-15 22 -66 31 -90 14z m61 -234 c9 -35 20 -71 22 -80 5 -16 -2 -18 -47 -18
-43 0 -51 3 -46 16 3 8 14 44 23 80 9 35 20 64 23 64 4 0 15 -28 25 -62z"/>
<path d="M5297 3933 c-4 -3 -7 -125 -7 -269 0 -250 1 -264 19 -274 26 -14 74
-13 89 2 8 8 12 46 12 104 0 51 4 95 9 98 4 3 40 -34 79 -82 102 -127 111
-134 163 -130 57 4 62 26 16 81 -19 23 -64 82 -101 131 -67 89 -67 90 -49 112
10 12 51 61 91 108 39 46 72 94 72 105 0 19 -6 21 -54 21 l-55 0 -82 -100
c-46 -55 -87 -100 -91 -100 -4 0 -7 39 -6 88 2 48 -1 93 -5 100 -8 12 -89 17
-100 5z"/>
<path d="M5815 3927 c-3 -7 -4 -131 -3 -277 l3 -265 55 0 55 0 3 264 c2 186
-1 268 -9 277 -15 18 -98 19 -104 1z"/>
<path d="M6755 3916 c-129 -61 -201 -215 -161 -347 24 -80 74 -142 143 -175
50 -25 69 -29 143 -29 92 1 158 25 180 64 5 11 10 76 10 144 l0 125 -94 7
c-52 4 -99 4 -104 1 -14 -9 -25 -62 -17 -86 5 -16 15 -20 56 -20 l49 0 0 -55
c0 -51 -2 -56 -27 -66 -75 -29 -179 16 -210 89 -21 50 -14 153 13 189 54 73
151 95 234 53 22 -11 42 -20 44 -20 12 0 47 83 42 96 -11 30 -87 54 -171 54
-64 0 -90 -5 -130 -24z"/>
<path d="M7282 3807 c-6 -6 -13 -24 -17 -39 -8 -30 -6 -32 93 -108 28 -22 52
-44 52 -48 0 -4 -34 -36 -76 -71 -75 -63 -76 -64 -71 -103 7 -51 11 -54 44
-33 40 26 206 161 229 186 l19 21 -80 75 c-73 68 -158 133 -176 133 -3 0 -11
-6 -17 -13z"/>
<path d="M3778 3194 c-34 -18 -58 -62 -58 -105 0 -48 56 -99 108 -99 110 0
151 144 58 201 -37 23 -71 24 -108 3z"/>
<path d="M4052 3138 c-16 -16 -15 -63 1 -76 8 -7 411 -11 1286 -13 1227 -2
1275 -1 1288 16 18 26 16 49 -5 68 -17 16 -121 17 -1288 17 -975 0 -1273 -3
-1282 -12z"/>
</g>
</svg>
