<?xml version="1.0" standalone="no"?>
<!DOCTYPE svg PUBLIC "-//W3C//DTD SVG 20010904//EN"
 "http://www.w3.org/TR/2001/REC-SVG-20010904/DTD/svg10.dtd">
<svg version="1.0" xmlns="http://www.w3.org/2000/svg"
 width="1021.000000pt" height="885.000000pt" viewBox="0 0 1021.000000 885.000000"
 preserveAspectRatio="xMidYMid meet">

<g transform="translate(0.000000,885.000000) scale(0.100000,-0.100000)"
fill="#000000" stroke="none">
<path d="M4300 4855 c-73 -21 -100 -33 -173 -82 -107 -71 -181 -177 -207 -296
-12 -50 -11 -60 1 -73 16 -15 28 -9 328 182 l93 59 34 110 c18 61 33 111 34
113 1 7 -71 -1 -110 -13z"/>
<path d="M4577 4762 c-20 -53 -80 -227 -133 -387 -105 -315 -170 -495 -184
-509 -8 -8 -80 28 -80 40 0 3 7 15 15 28 14 20 13 30 -9 104 -52 173 -88 222
-163 222 -38 0 -51 -6 -79 -34 -28 -28 -34 -42 -34 -75 0 -83 76 -221 167
-301 52 -46 182 -114 209 -108 11 2 29 39 56 113 75 212 167 485 219 652 74
243 76 246 110 239 38 -7 79 -35 79 -52 0 -8 -12 -20 -26 -26 -32 -15 -29 -27
37 -164 54 -113 74 -134 143 -141 38 -5 48 -2 70 20 34 34 41 69 27 132 -25
113 -135 237 -266 300 -122 59 -117 60 -158 -53z"/>
<path d="M8633 4580 c-132 -27 -230 -145 -241 -291 -8 -120 54 -238 153 -288
94 -49 297 -29 340 32 11 16 15 50 15 134 l0 113 -111 0 -110 0 3 -42 3 -43
53 -3 52 -3 0 -53 c0 -62 -5 -66 -81 -66 -149 0 -240 124 -199 272 33 119 176
174 296 113 l49 -25 22 28 c27 33 28 44 5 65 -50 45 -169 72 -249 57z"/>
<path d="M6780 4543 c-7 -21 -44 -121 -83 -223 -38 -102 -82 -220 -98 -262
l-29 -78 53 0 53 0 26 73 25 72 114 3 114 3 29 -76 29 -75 57 0 57 0 -73 178
c-40 97 -94 231 -121 297 l-48 120 -47 3 c-46 3 -46 3 -58 -35z m93 -193 c19
-52 38 -103 42 -112 6 -16 0 -18 -70 -18 -56 0 -76 3 -73 13 11 44 63 215 65
214 1 -1 17 -45 36 -97z"/>
<path d="M7178 4573 c-2 -5 -3 -138 -3 -298 l0 -290 50 0 50 0 3 123 c1 67 7
122 12 122 5 0 53 -56 107 -124 l98 -125 63 0 c48 -1 61 2 56 12 -9 15 -139
176 -189 234 l-36 42 63 78 c35 43 87 111 116 151 l52 72 -63 0 c-57 0 -65 -3
-74 -23 -12 -26 -118 -169 -156 -209 -15 -16 -31 -28 -37 -28 -6 0 -10 48 -10
135 l0 135 -49 0 c-28 0 -51 -3 -53 -7z"/>
<path d="M7670 4573 c-1 -5 -1 -138 -1 -298 l1 -290 50 -3 50 -3 0 300 0 301
-50 0 c-27 0 -50 -3 -50 -7z"/>
<path d="M7858 4283 c2 -164 6 -300 8 -302 2 -2 23 0 48 3 l46 7 2 187 3 187
52 -95 c29 -52 79 -138 111 -190 l58 -95 67 -3 67 -3 0 301 0 300 -55 0 -55 0
-2 -221 -3 -221 -126 219 -126 218 -49 3 -50 3 4 -298z"/>
<path d="M5628 4564 c-5 -4 -8 -137 -8 -296 l0 -288 55 0 55 0 0 111 0 112 57
-6 c67 -7 73 -13 135 -134 l43 -83 58 0 59 0 -48 88 c-25 48 -55 96 -65 108
-25 27 -25 30 17 67 99 86 83 238 -30 296 -45 23 -64 26 -185 29 -75 2 -139 1
-143 -4z m294 -122 c17 -17 23 -34 23 -67 0 -71 -26 -89 -130 -94 l-85 -3 0
97 0 97 85 -3 c72 -3 88 -7 107 -27z"/>
<path d="M6130 4275 l0 -295 200 0 200 0 0 50 0 50 -145 0 -145 0 0 76 0 76
123 -3 122 -4 3 47 3 47 -128 3 -128 3 -3 29 c-2 17 -1 49 3 73 l6 43 135 0
134 0 0 50 0 50 -190 0 -190 0 0 -295z"/>
<path d="M5122 4268 l3 -293 155 1 c138 0 160 3 196 22 55 28 84 76 84 136 0
63 -22 101 -72 127 -41 21 -42 22 -22 38 39 32 54 64 54 117 0 62 -24 98 -84
125 -34 15 -66 19 -179 19 l-138 0 3 -292z m276 178 c24 -24 20 -81 -8 -111
-21 -22 -32 -25 -92 -25 l-68 0 0 81 0 82 76 -6 c50 -4 82 -11 92 -21z m-54
-226 c99 -16 137 -78 80 -131 -23 -21 -35 -24 -107 -24 l-82 0 -3 83 -3 82 28
0 c15 0 55 -4 87 -10z"/>
<path d="M1735 4537 c-86 -34 -142 -86 -179 -166 -30 -68 -29 -199 2 -262 50
-103 155 -169 267 -169 64 0 153 31 184 63 l21 24 -21 29 c-13 16 -26 33 -30
38 -4 5 -20 -1 -36 -11 -38 -27 -66 -35 -123 -35 -107 1 -180 83 -180 202 0
148 157 247 284 179 l39 -21 30 30 c17 17 27 36 24 45 -3 8 -29 26 -58 41 -43
21 -66 26 -123 25 -39 0 -84 -6 -101 -12z"/>
<path d="M2225 4526 c-58 -27 -119 -90 -149 -155 -32 -71 -30 -199 6 -267 115
-220 410 -216 533 8 26 46 30 63 30 133 0 133 -54 221 -170 276 -79 38 -175
40 -250 5z m223 -103 c15 -11 41 -39 57 -62 27 -38 30 -51 30 -114 -1 -84 -18
-123 -70 -163 -69 -52 -171 -51 -235 3 -112 94 -83 296 50 352 40 17 136 8
168 -16z"/>
<path d="M3290 4543 c-1 -5 -1 -138 -1 -298 l1 -290 195 -3 195 -2 0 50 0 50
-145 0 -145 0 0 75 0 75 130 0 130 0 0 45 0 44 -127 3 -128 3 0 75 0 75 143 3
143 3 -3 47 -3 47 -192 3 c-106 1 -193 -1 -193 -5z"/>
<path d="M2722 4248 l3 -293 120 1 c158 1 220 19 282 80 63 64 86 121 87 215
0 132 -62 224 -179 268 -46 17 -78 21 -186 21 l-129 0 2 -292z m306 164 c48
-35 73 -91 73 -167 0 -72 -15 -110 -61 -149 -38 -32 -59 -37 -147 -39 -49 -2
-68 1 -67 11 1 6 2 93 3 193 l1 181 83 -3 c66 -3 88 -8 115 -27z"/>
<path d="M4865 4115 c-82 -54 -187 -120 -232 -147 l-82 -49 -31 -99 c-17 -55
-33 -107 -37 -116 -6 -15 0 -17 48 -12 171 18 334 124 420 273 37 63 71 174
67 215 l-3 32 -150 -97z"/>
</g>
</svg>
