<?xml version="1.0" standalone="no"?>
<!DOCTYPE svg PUBLIC "-//W3C//DTD SVG 20010904//EN"
 "http://www.w3.org/TR/2001/REC-SVG-20010904/DTD/svg10.dtd">
<svg version="1.0" xmlns="http://www.w3.org/2000/svg"
 width="1024.000000pt" height="1024.000000pt" viewBox="0 0 1024.000000 1024.000000"
 preserveAspectRatio="xMidYMid meet">

<g transform="translate(0.000000,1024.000000) scale(0.100000,-0.100000)"
fill="#282938" stroke="none">
<path d="M0 5120 l0 -5120 5120 0 5120 0 0 5120 0 5120 -5120 0 -5120 0 0
-5120z m5460 1760 c0 -4 -7 -13 -16 -21 -13 -10 -17 -10 -24 1 -11 18 7 41 26
33 8 -3 14 -9 14 -13z m-462 -122 c25 -25 11 -36 -57 -48 -82 -14 -110 -11
-125 12 -14 24 -5 29 61 38 89 11 108 11 121 -2z m-391 -91 c-3 -9 -30 -20
-63 -27 -49 -10 -59 -10 -72 4 -20 20 -11 29 53 54 48 20 51 20 69 2 10 -10
16 -25 13 -33z m688 -28 l35 -31 132 22 c159 26 251 30 296 11 74 -31 47 -41
-310 -109 l-37 -7 85 -92 c47 -51 91 -93 97 -93 6 0 21 -10 33 -21 18 -17 21
-25 12 -39 -9 -15 -2 -30 42 -91 29 -41 54 -76 56 -78 2 -2 67 9 144 24 135
27 140 28 160 10 48 -43 32 -53 -206 -121 l-30 -9 90 -152 c50 -84 97 -153
104 -153 7 0 63 15 125 34 62 19 148 42 192 51 79 16 80 16 97 -6 34 -41 35
-40 -222 -130 -91 -31 -164 -61 -163 -65 2 -5 23 -59 47 -119 66 -163 66 -162
21 -181 -31 -13 -40 -13 -50 -2 -7 7 -36 71 -65 141 -29 70 -57 130 -61 133
-5 3 -66 -13 -136 -35 -70 -23 -133 -41 -140 -41 -7 0 -22 19 -34 41 -17 34
-18 43 -8 50 17 10 155 53 224 70 28 7 52 13 54 15 6 5 -78 153 -131 232 -33
48 -55 72 -68 72 -11 0 -165 -32 -343 -70 -177 -39 -407 -88 -512 -111 -104
-22 -266 -59 -358 -81 l-168 -40 7 -99 7 -98 -39 6 c-80 12 -79 10 -93 128 -9
77 -9 110 -1 120 18 22 62 36 298 95 200 50 227 59 225 76 -1 10 -10 76 -20
147 -16 114 -20 127 -38 127 -20 0 -282 -57 -362 -79 -50 -14 -48 -5 -29 -166
8 -60 10 -114 6 -118 -4 -5 -29 -9 -56 -10 l-49 -2 -6 45 c-4 25 -8 84 -9 133
-2 48 -5 87 -8 87 -4 0 -203 -47 -360 -84 -32 -8 -55 -9 -58 -4 -4 5 1 29 10
53 20 52 25 54 226 100 85 20 162 38 171 41 13 4 17 25 21 120 4 80 10 120 19
128 15 14 259 73 418 102 91 16 94 16 108 -1 16 -24 17 -54 1 -59 -7 -2 -105
-25 -218 -51 -113 -26 -211 -52 -217 -57 -19 -15 -18 -148 1 -148 7 0 80 14
162 31 82 16 191 36 242 43 108 15 103 18 116 -84 3 -30 16 -106 28 -167 16
-87 25 -113 37 -113 9 0 81 13 161 29 80 16 166 32 193 36 26 3 47 9 46 13 -2
16 -102 175 -216 341 -104 151 -120 181 -108 191 8 7 81 23 162 37 l148 24 22
-28 c13 -15 23 -31 23 -36 0 -12 -47 -27 -127 -39 -40 -6 -73 -14 -71 -19 2
-4 28 -42 58 -83 41 -57 61 -76 78 -76 21 0 224 38 228 43 1 1 -47 67 -107
146 -60 79 -109 149 -109 156 0 12 14 22 32 24 4 1 23 -13 43 -30z m-1107 -18
c10 -6 10 -10 -3 -21 -18 -15 -42 0 -31 19 8 13 16 14 34 2z m2282 -51 c-22
-14 -30 -12 -30 8 0 28 12 34 29 17 14 -14 14 -17 1 -25z m-345 -130 l38 -39
-25 -10 c-41 -15 -392 -89 -403 -84 -14 6 -79 93 -73 98 7 8 350 73 388 74 29
1 43 -6 75 -39z m-2045 -11 c0 -33 -50 -117 -74 -123 -11 -3 -38 -6 -58 -6
-64 0 -47 30 66 113 56 43 66 45 66 16z m-526 -115 c9 -3 16 -10 16 -16 0 -5
-4 -6 -10 -3 -5 3 -10 -1 -10 -9 0 -19 -26 -22 -32 -4 -3 7 0 18 6 25 13 15
11 14 30 7z m2996 -119 c-18 -21 -27 -19 -32 10 -6 28 11 38 30 18 11 -11 11
-17 2 -28z m-128 -47 c13 -18 35 -50 48 -72 l23 -39 -24 -18 c-43 -33 -61 -25
-117 56 l-52 74 27 15 c44 24 68 19 95 -16z m399 -111 c-13 -13 -26 -3 -16 12
3 6 11 8 17 5 6 -4 6 -10 -1 -17z m-3591 -7 c0 -11 -7 -20 -15 -20 -15 0 -21
21 -8 33 12 13 23 7 23 -13z m3888 -119 l32 -13 -31 -29 c-37 -34 -39 -35 -39
-10 0 11 -4 22 -9 25 -10 7 -2 49 8 43 3 -2 21 -9 39 -16z m-3526 -22 c-1 -8
-13 -41 -26 -74 -13 -33 -29 -85 -36 -115 -7 -30 -17 -61 -23 -67 -10 -13 -98
-18 -110 -7 -14 14 83 243 117 277 19 19 83 8 78 -14z m3019 -64 c37 -55 111
-207 139 -283 25 -70 21 -84 -31 -97 -25 -6 -28 -2 -73 103 -26 60 -70 149
-97 197 -27 49 -49 91 -49 95 0 11 43 29 65 27 10 -1 31 -20 46 -42z m-2747
-23 c7 -11 -23 -114 -38 -129 -6 -6 -44 -15 -84 -19 l-73 -7 7 29 c4 16 16 53
26 82 l19 52 69 0 c38 0 71 -4 74 -8z m221 -52 c5 -8 -33 -46 -39 -39 -2 2 -6
14 -10 25 -5 18 -2 22 19 22 14 0 27 -4 30 -8z m2804 -91 c-13 -7 -2 -49 12
-49 5 0 9 -5 9 -11 0 -8 -5 -8 -15 1 -12 10 -18 10 -31 -1 -13 -11 -14 -9 -8
15 4 19 2 31 -7 36 -10 7 -10 11 0 24 10 12 17 13 31 3 12 -7 15 -14 9 -18z
m-2194 -119 c-5 -8 -11 -8 -17 -2 -6 6 -7 16 -3 22 5 8 11 8 17 2 6 -6 7 -16
3 -22z m1809 -55 c16 -36 27 -67 25 -69 -12 -11 -67 -34 -88 -37 -20 -3 -30 5
-57 51 -18 30 -33 60 -34 66 0 13 79 54 105 54 15 -1 27 -17 49 -65z m-3199
11 c-4 -17 -9 -48 -12 -68 -5 -34 -23 -55 -23 -27 0 8 -5 7 -15 -1 -24 -20
-27 -7 -14 63 12 63 13 66 42 65 27 -1 28 -3 22 -32z m486 -53 c63 -33 71 -56
39 -108 -25 -41 -40 -43 -81 -13 -22 17 -43 22 -83 22 -62 -1 -96 -21 -128
-73 -31 -48 -32 -151 -3 -199 45 -75 145 -96 218 -46 45 30 61 27 84 -20 13
-28 14 -41 5 -60 -32 -70 -207 -97 -306 -46 -108 55 -162 156 -154 289 7 122
64 207 173 261 62 31 166 28 236 -7z m514 8 c51 -24 119 -93 148 -151 30 -61
30 -184 0 -251 -72 -160 -248 -225 -401 -148 -109 54 -162 143 -162 275 0 66
4 89 26 131 29 60 88 117 148 144 56 26 185 26 241 0z m564 -12 c70 -31 107
-64 136 -123 36 -74 37 -193 2 -269 -31 -67 -89 -122 -153 -146 -54 -21 -225
-38 -268 -27 l-26 6 0 264 c0 145 3 278 7 296 l6 33 125 -7 c92 -5 137 -12
171 -27z m581 -29 l0 -60 -100 0 -100 0 0 -51 0 -51 88 3 87 4 0 -60 0 -60
-87 -3 -88 -3 0 -64 0 -65 105 0 106 0 -3 -57 -3 -58 -167 -3 -168 -2 0 288
c0 159 3 292 7 295 3 4 78 7 165 7 l158 0 0 -60z m513 -98 c15 -53 15 -53 -8
-62 -13 -5 -39 -12 -58 -15 -35 -7 -36 -6 -47 37 -6 23 -13 50 -16 59 -6 20
11 35 56 47 44 12 53 3 73 -66z m-279 -1 c4 -5 13 -46 22 -91 12 -63 12 -85 3
-96 -18 -22 -37 -16 -43 14 -11 56 -18 161 -11 171 8 13 22 14 29 2z m1232
-28 c-10 -10 -19 5 -10 18 6 11 8 11 12 0 2 -7 1 -15 -2 -18z m179 -23 c3 -11
2 -28 -4 -37 -9 -16 -10 -16 -11 -1 0 9 -5 18 -11 20 -11 4 -2 38 11 38 5 0
11 -9 15 -20z m-151 -68 c2 -4 8 -58 12 -120 l7 -112 -40 0 -40 0 -8 111 c-5
89 -4 113 7 120 17 11 55 12 62 1z m-4104 -80 c0 -27 -3 -52 -6 -55 -4 -4 -19
2 -34 13 -16 11 -33 20 -39 20 -20 0 -11 16 17 31 15 8 31 20 35 26 16 26 27
12 27 -35z m3628 20 c2 -16 -3 -23 -22 -28 -33 -8 -34 -24 -1 -24 18 0 25 -5
25 -19 0 -21 -25 -30 -320 -111 -303 -84 -422 -112 -430 -103 -15 16 -32 85
-24 93 9 9 226 73 559 165 94 26 175 48 180 50 19 6 30 -2 33 -23z m273 -82
c4 -52 5 -98 2 -102 -2 -5 -29 -8 -59 -8 l-54 0 0 43 c0 23 -3 65 -6 94 l-7
52 34 10 c19 5 45 9 59 8 24 -2 25 -5 31 -97z m-3469 -60 c2 -5 1 -37 0 -70
l-4 -60 -39 0 -39 0 0 54 c0 75 6 86 45 86 18 0 35 -4 37 -10z m3092 -169 c3
-5 -1 -14 -8 -20 -16 -13 -32 2 -21 19 8 12 22 13 29 1z m-3114 -27 c0 -8 -7
-14 -15 -14 -15 0 -21 21 -9 33 10 9 24 -2 24 -19z m3834 -89 c59 -30 65 -46
36 -100 -13 -25 -28 -45 -32 -45 -4 0 -28 11 -54 25 -138 73 -269 -34 -236
-193 18 -84 74 -132 157 -132 61 0 75 14 75 70 l0 50 -55 0 -55 0 0 55 0 55
115 0 115 0 0 -145 0 -144 -42 -25 c-124 -71 -299 -44 -383 58 -47 58 -66 117
-66 203 0 122 63 222 174 274 57 26 194 23 251 -6z m-3403 5 c64 -12 105 -47
120 -103 11 -43 5 -73 -23 -103 -19 -21 -19 -21 18 -49 48 -37 66 -82 59 -147
-8 -63 -15 -77 -59 -116 -43 -37 -82 -44 -236 -40 l-115 3 4 275 c2 151 5 278
8 283 6 10 162 9 224 -3z m505 -5 c81 -24 126 -84 126 -167 -1 -37 -8 -61 -27
-89 -14 -22 -30 -39 -35 -39 -6 0 -10 -5 -10 -11 0 -16 67 -146 101 -195 15
-23 25 -44 22 -48 -4 -3 -34 -6 -68 -6 -73 0 -71 -2 -140 124 -37 67 -56 92
-73 94 -22 3 -22 1 -22 -108 l0 -111 -62 3 -63 3 -3 270 c-1 148 0 275 3 282
7 19 188 17 251 -2z m552 -42 l-3 -58 -97 -3 -98 -3 0 -49 0 -50 85 0 c94 0
86 6 89 -75 l1 -40 -87 -3 -88 -3 0 -59 0 -60 106 0 105 0 -3 -52 -3 -53 -165
0 -165 0 -3 260 c-1 143 0 270 3 283 5 22 8 22 166 22 l160 0 -3 -57z m350 48
c21 -5 36 -41 118 -276 51 -149 94 -273 94 -277 0 -5 -29 -8 -63 -8 -71 0 -73
3 -97 89 l-11 42 -86 -3 -87 -3 -20 -63 -20 -63 -66 3 c-51 2 -65 6 -63 18 2
17 114 342 159 462 29 79 35 85 94 86 14 0 36 -3 48 -7z m384 -101 c-2 -63 0
-101 5 -95 20 21 110 141 126 168 17 26 22 27 92 27 54 0 75 -4 75 -13 0 -7
-28 -48 -63 -92 -34 -44 -72 -94 -84 -111 l-22 -30 82 -115 c45 -63 94 -130
109 -149 19 -25 24 -37 15 -42 -17 -11 -115 -10 -137 2 -10 5 -39 40 -65 77
-51 73 -104 133 -117 133 -4 0 -9 -48 -10 -107 l-3 -108 -67 -3 -68 -3 0 279
c0 153 3 282 7 286 4 4 34 6 68 4 l60 -3 -3 -105z m526 -178 l2 -283 -62 3
-62 3 -3 274 c-1 150 0 278 3 283 3 5 31 8 62 6 l57 -3 3 -283z m567 3 l0
-280 -51 -3 -51 -3 -86 133 c-135 207 -122 204 -122 26 l0 -153 -29 -3 c-16
-2 -44 -1 -63 3 l-33 6 2 272 3 272 50 3 c28 1 55 -1 60 -5 6 -5 53 -72 105
-150 l95 -142 3 142 c1 78 4 148 7 155 3 9 21 12 57 10 l53 -3 0 -280z m-3285
148 c20 -74 37 -163 32 -168 -3 -3 -22 -5 -43 -5 l-37 0 -21 91 c-28 121 -28
119 19 119 37 0 40 -2 50 -37z m4150 -303 c0 -5 7 -10 17 -10 14 0 14 -2 -2
-20 -22 -24 -50 -27 -41 -4 3 9 6 22 6 30 0 8 5 14 10 14 6 0 10 -4 10 -10z
m-4105 -100 c18 -20 18 -21 -3 -42 -16 -17 -25 -19 -33 -11 -17 17 -1 37 17
22 12 -10 13 -9 8 5 -4 11 -13 14 -33 10 l-26 -7 20 21 c25 26 28 26 50 2z
m2193 -102 c7 -7 12 -44 12 -95 0 -56 4 -83 12 -83 6 0 97 24 202 54 246 70
245 70 252 51 3 -8 -6 -69 -20 -136 -14 -67 -25 -124 -23 -126 2 -2 70 12 150
30 81 19 149 32 152 29 3 -3 5 -16 5 -29 0 -30 -23 -40 -204 -90 l-139 -38
-18 -43 c-20 -45 -47 -62 -101 -62 -20 0 -29 4 -25 13 11 31 18 57 14 57 -19
0 -216 -44 -229 -51 -13 -7 -18 -22 -18 -54 l0 -45 -49 0 -49 0 -7 107 c-4 59
-10 126 -14 149 l-6 42 -122 -31 c-68 -17 -123 -35 -123 -39 0 -5 16 -35 37
-66 20 -31 42 -71 50 -89 12 -29 11 -33 -5 -41 -9 -6 -109 -24 -222 -42 -113
-17 -279 -44 -370 -60 -310 -54 -312 -54 -354 -29 -20 11 -36 27 -36 34 0 16
10 18 190 46 80 12 147 24 149 26 2 1 -11 24 -29 49 -39 55 -40 54 83 85 l89
22 59 -59 58 -58 83 13 c140 21 148 23 148 30 0 14 -69 121 -162 252 -128 180
-126 175 -85 188 17 6 87 22 155 36 68 14 151 32 185 40 88 21 114 19 122 -6
4 -13 2 -26 -6 -34 -8 -8 -72 -30 -144 -50 -71 -20 -136 -38 -143 -40 -8 -3 4
-29 39 -80 58 -86 33 -83 224 -25 l120 37 -4 101 c-2 55 0 105 3 111 10 15 99
14 114 -1z m1021 -64 c6 -5 -103 -166 -127 -187 -15 -14 -25 -15 -46 -7 l-27
10 26 42 c14 24 39 69 56 101 l29 57 43 -6 c23 -4 44 -8 46 -10z m-2784 -101
c44 -58 124 -156 178 -219 53 -62 97 -120 97 -127 0 -8 -6 -20 -14 -26 -18
-15 -83 36 -192 151 -82 88 -224 269 -224 287 0 11 48 40 65 40 6 0 46 -48 90
-106z m852 -46 l23 -37 -22 -9 c-13 -5 -56 -17 -96 -27 l-74 -19 -24 30 c-33
42 -30 53 19 65 23 6 62 18 87 25 25 7 49 12 54 11 5 -1 20 -19 33 -39z m-359
-81 c23 -30 42 -58 42 -63 0 -8 -83 -36 -160 -54 -33 -7 -37 -5 -78 38 -23 26
-41 53 -40 61 2 8 25 21 53 28 28 7 68 20 90 28 22 8 42 15 45 15 3 1 24 -23
48 -53z m1905 -280 c8 -21 -4 -57 -17 -53 -6 3 -10 10 -8 16 1 6 -5 11 -13 11
-12 0 -12 3 3 19 21 24 28 25 35 7z m324 -130 c-4 -11 -1 -13 10 -9 13 5 13 3
-2 -20 -15 -23 -19 -24 -31 -12 -17 17 -17 22 -1 40 16 19 31 19 24 1z m-759
-28 c7 -7 12 -16 12 -21 0 -11 -93 -51 -158 -68 -46 -11 -55 -11 -62 1 -14 22
15 44 95 73 80 30 96 32 113 15z m-1121 -69 c44 -16 65 -39 52 -56 -16 -18
-50 -16 -102 6 -48 21 -62 35 -52 51 8 13 66 13 102 -1z m628 -15 c20 -32 16
-36 -62 -59 -60 -18 -78 -19 -104 -5 -36 20 -20 37 59 63 42 15 80 26 83 27 4
0 14 -12 24 -26z m245 -39 c0 -8 -4 -15 -10 -15 -5 0 -10 7 -10 15 0 8 5 15
10 15 6 0 10 -7 10 -15z"/>
<path d="M5352 6213 c-92 -22 -102 -27 -97 -44 5 -15 78 -143 90 -157 3 -4
234 48 263 59 22 9 22 11 -38 89 -71 93 -64 91 -218 53z"/>
<path d="M4114 5331 c-83 -38 -118 -155 -72 -241 44 -83 157 -115 226 -63 54
40 67 69 67 146 0 86 -24 128 -89 158 -52 23 -80 23 -132 0z"/>
<path d="M4690 5169 l0 -171 53 4 c67 6 108 33 137 94 57 118 -18 244 -145
244 l-45 0 0 -171z"/>
<path d="M3570 4544 l0 -55 37 3 c49 4 82 46 65 83 -10 21 -18 25 -57 25 l-45
0 0 -56z"/>
<path d="M3570 4324 l0 -66 59 4 c71 5 91 19 91 64 0 49 -21 64 -91 64 l-59 0
0 -66z"/>
<path d="M4060 4539 l0 -62 46 7 c58 7 74 20 74 57 0 40 -24 59 -76 59 l-44 0
0 -61z"/>
<path d="M5016 4472 c-22 -81 -22 -82 24 -82 22 0 40 5 40 10 0 22 -34 130
-40 130 -4 0 -15 -26 -24 -58z"/>
<path d="M5690 3846 l-145 -43 -3 -77 c-2 -61 0 -76 12 -76 21 0 249 50 255
56 13 13 47 184 37 183 -6 0 -76 -20 -156 -43z"/>
</g>
</svg>
